<svg xmlns="http://www.w3.org/2000/svg" viewBox="0 0 100 100">
    <path fill="#333" transform="translate(0,100) scale(0.1,-0.1)" d="M200 803 c-69 -25 -162 -123 -185 -195 -21 -69 -16 -186 10 -239 31 -60 81 -114 134 -142 68 -38 84 -41 171 -41 87 -1 149 24 207 82 63 63 104 186 89 267 l-7 36 -152 -3 -152 -3 0 -65 0 -65 88 -5 89 -5 -31 -42 c-70 -96 -225 -87 -295 17 -24 35 -29 52 -27 96 3 93 32 141 106 175 52 24 99 23 154 -2 l45 -20 45 46 c45 45 46 46 26 61 -11 9 -38 25 -60 36 -53 28 -191 34 -255 11z" />
    <path fill="#333" transform="translate(0,100) scale(0.1,-0.1)" d="M810 615 l0 -55 -55 0 -55 0 0 -46 0 -46 55 4 55 3 0 -57 0 -58 40 0 40 0 0 58 0 57 55 -3 55 -4 0 46 0 46 -55 0 -55 0 0 55 0 55 -40 0 -40 0 0 -55z" />
</svg>